<?xml version="1.0" standalone="no"?>
<!DOCTYPE svg PUBLIC "-//W3C//DTD SVG 20010904//EN"
 "http://www.w3.org/TR/2001/REC-SVG-20010904/DTD/svg10.dtd">
<svg version="1.0" xmlns="http://www.w3.org/2000/svg"
 width="512.000000pt" height="512.000000pt" viewBox="0 0 512.000000 512.000000"
 preserveAspectRatio="xMidYMid meet">
<metadata>
Created by potrace 1.14, written by Peter Selinger 2001-2017
</metadata>
<g transform="translate(0.000000,512.000000) scale(0.100000,-0.100000)"
fill="#000000" stroke="none">
<path d="M0 2560 l0 -2560 2560 0 2560 0 0 2560 0 2560 -2560 0 -2560 0 0
-2560z m1904 1589 c12 -12 1221 -2026 1323 -2204 23 -38 71 -130 107 -202 84
-168 100 -174 92 -36 -13 233 -19 497 -26 1273 -5 564 -12 839 -19 871 -22 85
-100 151 -215 180 l-46 11 0 65 0 64 445 -1 445 -2 0 -63 0 -63 -46 -11 c-63
-16 -133 -53 -166 -88 -37 -39 -57 -101 -68 -213 -5 -53 -10 -724 -10 -1527
l0 -1433 -154 0 -154 0 -383 643 c-211 353 -457 766 -547 917 -440 736 -610
1025 -669 1138 -51 96 -69 122 -85 122 -20 0 -21 -3 -14 -117 11 -177 25
-1181 26 -1759 0 -324 4 -532 11 -569 24 -128 75 -181 219 -226 l55 -17 3 -61
3 -61 -456 0 -456 0 3 61 3 61 55 17 c147 46 198 100 220 232 14 87 14 2576 0
2650 -14 73 -46 135 -85 165 -19 14 -69 38 -112 53 l-78 27 -3 48 c-6 86 -39
79 389 74 307 -4 383 -8 393 -19z"/>
</g>
</svg>
